<svg width="19" height="15" viewBox="0 0 19 15" fill="none" xmlns="http://www.w3.org/2000/svg">
<path d="M1 8.36401C0.447715 8.36401 4.82823e-08 7.9163 0 7.36401C-4.82823e-08 6.81173 0.447715 6.36401 1 6.36401L1 8.36401ZM18.5071 6.65691C18.8976 7.04743 18.8976 7.68059 18.5071 8.07112L12.1431 14.4351C11.7526 14.8256 11.1195 14.8256 10.7289 14.4351C10.3384 14.0446 10.3384 13.4114 10.7289 13.0209L16.3858 7.36401L10.7289 1.70716C10.3384 1.31663 10.3384 0.683469 10.7289 0.292945C11.1195 -0.0975794 11.7526 -0.0975795 12.1431 0.292945L18.5071 6.65691ZM1 7.36401L1 6.36401L17.8 6.36401L17.8 7.36401L17.8 8.36401L1 8.36401L1 7.36401Z" fill="#313131"/>
</svg>
