<svg width="42" height="42" viewBox="0 0 42 42" fill="none" xmlns="http://www.w3.org/2000/svg">
<path d="M23 34.98C22.844 37.032 22.454 38.372 21.486 39.354C19.868 41 17.264 41 12.052 41C6.84 41 4.238 41 2.618 39.354C1 37.71 1 35.062 1 29.766V20.136C1 14.84 1 12.192 2.62 10.546C3.602 9.546 4.952 9.154 7.028 9M11.984 35H12.002" stroke="white" stroke-width="2" stroke-linecap="round" stroke-linejoin="round"/>
<path d="M29.156 1H24.844C19.04 1 16.14 1 14.42 2.806C12.698 4.614 12.88 7.466 13.24 13.174L13.492 17.144C13.576 18.454 13.616 19.11 13.764 19.658C14.0491 20.6987 14.6199 21.6387 15.4116 22.3718C16.2034 23.1049 17.1845 23.6017 18.244 23.806C18.808 23.918 19.474 23.918 20.808 23.918C22.666 23.918 22.64 25.452 22.64 26.97C22.64 28.15 22.64 28.738 23.024 28.94C23.408 29.142 23.904 28.816 24.9 28.162L30.82 24.274C31.1688 24.032 31.5856 23.9074 32.01 23.918C34.454 23.918 35.676 23.918 36.666 23.55C40.098 22.276 40.384 19.106 40.582 15.98L40.76 13.174C41.12 7.466 41.302 4.614 39.58 2.806C37.86 1 34.96 1 29.156 1Z" stroke="white" stroke-width="2" stroke-linecap="round" stroke-linejoin="round"/>
<path d="M32.14 18L30.89 15.5M30.89 15.5L27 8L23.39 15.5L22.14 18M30.89 15.5H23.392" stroke="white" stroke-width="2" stroke-linecap="round" stroke-linejoin="round"/>
</svg>
