<svg width="34" height="34" viewBox="0 0 34 34" fill="none" xmlns="http://www.w3.org/2000/svg">
<path fill-rule="evenodd" clip-rule="evenodd" d="M17 29.9984L18.0517 28.846C19.245 27.5179 20.3189 26.2542 21.2733 25.0548L22.0617 24.0434C25.3539 19.7309 27 16.3092 27 13.7786C27 8.37791 22.5233 4 17 4C11.4767 4 7 8.37791 7 13.7786C7 16.3092 8.64611 19.7314 11.9383 24.045L12.7267 25.0564C14.0892 26.7539 15.5146 28.4013 17 29.9984Z" stroke="white" stroke-linecap="round" stroke-linejoin="round"/>
<path d="M17.0007 17.7771C19.3018 17.7771 21.1673 15.9629 21.1673 13.725C21.1673 11.487 19.3018 9.67285 17.0007 9.67285C14.6995 9.67285 12.834 11.487 12.834 13.725C12.834 15.9629 14.6995 17.7771 17.0007 17.7771Z" stroke="white" stroke-linecap="round" stroke-linejoin="round"/>
</svg>
