<svg width="140" height="48" viewBox="0 0 140 48" fill="none" xmlns="http://www.w3.org/2000/svg">
<g clip-path="url(#clip0_86_1215)">
<path d="M33.6652 0H42.3037C40.2104 12.0264 38.103 24.0508 36.0037 36.0759C33.4657 36.0766 30.9283 36.0766 28.3903 36.0759C30.1511 25.9925 31.9145 15.9098 33.6746 5.82712C32.0556 5.82508 30.4366 5.82712 28.8176 5.82576C30.4339 3.88407 32.0435 1.93695 33.6652 0Z" fill="#1D7754"/>
<path d="M50.9952 42.924C51.7584 42.1897 52.8601 41.9816 53.8799 41.9741C54.8398 41.9795 55.8657 42.0928 56.6691 42.6717C57.1441 43.004 57.4302 43.5694 57.4356 44.1511C57.0493 44.1531 56.6637 44.1524 56.2781 44.1524C56.2667 43.7843 56.0625 43.4433 55.7474 43.2602C55.1489 42.8948 54.4227 42.8507 53.7408 42.8656C53.0636 42.8901 52.3421 43.0826 51.8732 43.606C51.4111 44.1151 51.3358 44.8711 51.485 45.5212C51.6045 46.0446 51.9727 46.4894 52.4436 46.7334C53.0677 47.0609 53.7972 47.0955 54.4858 47.0331C55.0125 46.9782 55.5681 46.8304 55.9523 46.4406C56.1606 46.2345 56.2546 45.945 56.2775 45.6575C56.6624 45.6562 57.048 45.6562 57.4343 45.6575C57.4309 46.2467 57.1689 46.8317 56.7 47.1904C55.9234 47.8053 54.8963 47.9165 53.943 47.9497C53.0072 47.928 52.015 47.7829 51.2498 47.1958C50.6351 46.7341 50.2791 45.9802 50.2341 45.2162C50.1602 44.3924 50.3846 43.505 50.9952 42.924Z" fill="#1D7754"/>
<path d="M42.8229 47.8807C43.7903 45.9275 44.761 43.9756 45.7324 42.0244C46.1872 42.0264 46.6427 42.0244 47.0982 42.0258C48.0655 43.977 49.0329 45.9281 49.9983 47.8807C49.6046 47.8827 49.2103 47.8793 48.8166 47.8834C48.6366 47.5309 48.4532 47.181 48.2872 46.8217C47.0404 46.8027 45.7929 46.819 44.5461 46.8136C44.368 47.1688 44.1941 47.5261 44.0154 47.8814C43.6177 47.8814 43.2206 47.882 42.8229 47.8807ZM46.3975 43.1064C45.9185 44.0746 45.4342 45.04 44.9532 46.0075C45.9273 46.0088 46.902 46.0081 47.8761 46.0081C47.377 45.0448 46.9282 44.0502 46.3975 43.1064Z" fill="#1D7754"/>
<path d="M57.8038 47.8807C58.7732 45.9281 59.7399 43.9736 60.716 42.0244C61.1701 42.0264 61.6242 42.0244 62.079 42.0258C63.0464 43.977 64.0138 45.9281 64.9791 47.8807C64.5854 47.8827 64.1911 47.88 63.7974 47.8827C63.6154 47.5295 63.4353 47.1756 63.2627 46.8176C62.0172 46.8081 60.7717 46.8156 59.5262 46.8142C59.3489 47.1695 59.1749 47.5268 58.9962 47.8814C58.5985 47.8807 58.2015 47.882 57.8038 47.8807ZM61.3797 43.1031C60.9007 44.0726 60.4163 45.04 59.934 46.0075C60.9088 46.0088 61.8828 46.0088 62.8576 46.0075C62.3585 45.0434 61.907 44.0502 61.3797 43.1031Z" fill="#1D7754"/>
<path d="M65.8732 42.0427C66.9131 42.0427 67.9537 42.0413 68.9943 42.0434C69.8576 42.061 70.7551 42.2122 71.4893 42.6983C72.0509 43.0657 72.4507 43.6732 72.5561 44.3417C72.6596 44.9993 72.5931 45.7037 72.2747 46.2956C72.0133 46.783 71.5854 47.1674 71.0957 47.4115C70.3843 47.7728 69.5754 47.8806 68.7874 47.8806C67.816 47.882 66.8446 47.8813 65.8732 47.8806C65.8725 45.9349 65.8719 43.9884 65.8732 42.0427ZM67.0193 42.9539C67.0146 44.2881 67.026 45.6237 67.0132 46.9579C67.6514 46.9756 68.2903 46.9627 68.9285 46.9647C69.6312 46.9559 70.3869 46.7851 70.8935 46.259C71.3462 45.8006 71.4725 45.101 71.363 44.4813C71.2912 44.0603 71.0433 43.6779 70.696 43.4359C70.1827 43.0698 69.5371 42.9654 68.9224 42.9545C68.2876 42.9518 67.6534 42.9539 67.0193 42.9539Z" fill="#1D7754"/>
<path d="M73.7459 42.0427C75.7888 42.042 77.8317 42.0427 79.8746 42.042C79.8746 42.3457 79.8759 42.6501 79.8739 42.9539C78.2119 42.9525 76.5492 42.9532 74.8872 42.9539C74.8866 43.4264 74.8866 43.8989 74.8872 44.3722C76.3927 44.3728 77.8975 44.3742 79.4023 44.3715C79.4063 44.6542 79.4043 44.9369 79.405 45.2203C77.8988 45.221 76.3934 45.2196 74.8872 45.221C74.8872 45.8027 74.8866 46.3844 74.8879 46.9661C76.5499 46.9661 78.2126 46.9654 79.8746 46.9661C79.8752 47.2711 79.8752 47.5762 79.8752 47.8813C77.8317 47.8813 75.7888 47.882 73.7452 47.8806C73.7445 45.9349 73.7445 43.9884 73.7459 42.0427Z" fill="#1D7754"/>
<path d="M81.0462 42.0435C81.5615 42.0475 82.0774 42.0292 82.5926 42.053C83.5164 43.735 84.471 45.4001 85.4054 47.076C86.3526 45.4041 87.3012 43.733 88.2323 42.0523C88.7449 42.0306 89.2581 42.0475 89.7713 42.0428C89.772 43.9885 89.772 45.935 89.7713 47.8807C89.3931 47.8828 89.0149 47.8794 88.6374 47.8835C88.628 46.3709 88.638 44.8584 88.632 43.3465C87.7506 44.855 86.8813 46.3716 86.002 47.8814C85.609 47.8821 85.2166 47.8794 84.8243 47.8828C83.9409 46.3757 83.073 44.8584 82.1896 43.3506C82.1876 44.8604 82.1903 46.3709 82.1882 47.8814C81.808 47.8821 81.4284 47.8808 81.0489 47.8821C81.0442 45.9357 81.0482 43.9892 81.0462 42.0435Z" fill="#1D7754"/>
<path d="M90.6406 42.0427C91.0605 42.042 91.4804 42.042 91.9016 42.042C92.5619 43.0535 93.2209 44.0664 93.88 45.0793C94.5437 44.0684 95.1987 43.0522 95.8624 42.042C96.2816 42.0427 96.7015 42.0413 97.122 42.0427C96.3407 43.2101 95.5574 44.3756 94.7768 45.543C94.6754 45.7064 94.5437 45.8528 94.4664 46.0298C94.453 46.6467 94.4658 47.2637 94.4611 47.8806C94.0775 47.8813 93.6939 47.8813 93.311 47.8813C93.3063 47.263 93.319 46.644 93.3056 46.0264C92.4356 44.6874 91.5247 43.3728 90.6406 42.0427Z" fill="#1D7754"/>
<path d="M3.86344 13.9704C12.1291 13.9616 20.3947 13.9677 28.6604 13.967C27.0488 15.908 25.4338 17.8457 23.8235 19.7867C19.5651 19.7914 15.3066 19.7853 11.0482 19.7894C10.8796 20.7582 10.7089 21.7257 10.5423 22.6945C15.4961 22.6958 20.4491 22.6938 25.4029 22.6958C23.9928 24.3989 22.5733 26.0945 21.1653 27.7989C21.1095 27.8545 21.0598 27.9467 20.9664 27.9311C17.1863 27.9358 13.4048 27.9297 9.62466 27.9338C9.15173 30.6484 8.67745 33.3623 8.20182 36.0762C5.46766 36.0775 2.73417 36.0755 0 36.0768V36.0626C0.28215 34.5304 0.5381 32.9935 0.810173 31.4599C1.82658 25.6294 2.85106 19.8009 3.86344 13.9704Z" fill="#124734"/>
<path d="M42.303 19.7879C43.9152 17.8462 45.5289 15.9052 47.1438 13.9655C52.7459 13.9669 58.3485 13.9655 63.9506 13.9662C65.0046 13.9716 66.0593 13.9547 67.1127 13.9757C69.2657 14.055 71.3328 15.2388 72.5252 17.0462C73.2937 18.1899 73.715 19.5682 73.7082 20.9506C73.7176 21.6815 73.5571 22.3981 73.4355 23.1147C73.0962 25.0164 72.1013 26.7879 70.663 28.0632C69.4303 29.1676 67.8785 29.8998 66.2501 30.1533C67.8892 32.1283 69.5324 34.0998 71.1716 36.0754C67.9101 36.0781 64.6485 36.0747 61.3877 36.0774C59.7694 34.1405 58.1618 32.1954 56.5441 30.2577C53.7233 30.2645 50.9025 30.2483 48.0823 30.2659C47.7538 32.2042 47.4072 34.1384 47.072 36.0754C44.534 36.0774 41.996 36.076 39.4579 36.076C40.1344 32.1974 40.8123 28.3194 41.4901 24.4415C48.7984 24.4401 56.1068 24.4401 63.4151 24.4415C64.0117 24.4747 64.6284 24.3174 65.0946 23.9303C65.845 23.3425 66.1587 22.2618 65.8369 21.3594C65.5387 20.4503 64.6391 19.7859 63.6872 19.7893C56.5589 19.7866 49.4306 19.7893 42.303 19.7879Z" fill="#124734"/>
<path d="M82.426 14.0896C83.1999 13.9303 83.9933 13.971 84.7779 13.9662C93.6347 13.9662 102.492 13.9655 111.348 13.9669C109.74 15.8991 108.138 17.8374 106.524 19.7649C106.092 19.8211 105.639 19.7716 105.199 19.7879C98.7067 19.7886 92.2139 19.7872 85.7211 19.7886C84.9103 19.7642 84.1948 20.5357 84.2794 21.352C84.3157 21.9194 84.7168 22.4388 85.2515 22.6164C85.5303 22.7188 85.8306 22.6916 86.1215 22.695C91.6543 22.6944 97.1865 22.695 102.719 22.6944C104.532 22.6123 106.352 23.453 107.468 24.8971C108.264 25.9038 108.714 27.1832 108.716 28.472C108.727 29.1716 108.564 29.8564 108.446 30.5418C108.022 32.6374 106.577 34.4835 104.662 35.3954C103.743 35.8401 102.725 36.076 101.706 36.0767C92.486 36.0754 83.2671 36.0774 74.0475 36.0754C75.6598 34.1343 77.2734 32.194 78.8877 30.2544C85.801 30.255 92.7151 30.253 99.6291 30.2557C99.9589 30.2652 100.291 30.1608 100.553 29.956C101.037 29.5927 101.245 28.9045 101.039 28.3316C100.852 27.7628 100.288 27.3486 99.6936 27.3527C93.9377 27.3513 88.1818 27.352 82.426 27.352C81.3061 27.352 80.1889 27.0137 79.2585 26.3852C78.099 25.6116 77.2331 24.4021 76.8737 23.0462C76.6204 22.1221 76.6245 21.1405 76.8213 20.2055C76.9436 19.3696 77.1585 18.5411 77.5468 17.7879C78.492 15.8828 80.3482 14.4733 82.426 14.0896Z" fill="#124734"/>
<path d="M109.961 19.788C111.573 17.847 113.187 15.906 114.801 13.9663C123.184 13.967 131.566 13.965 139.948 13.967C138.328 15.9046 136.72 17.8524 135.1 19.79C132.727 19.7867 130.353 19.7887 127.98 19.7887C127.031 25.2178 126.083 30.647 125.134 36.0761C122.596 36.0775 120.058 36.0761 117.521 36.0761C118.467 30.647 119.419 25.2178 120.365 19.7887C116.897 19.788 113.429 19.7887 109.961 19.788Z" fill="#124734"/>
</g>
<defs>
<clipPath id="clip0_86_1215">
<rect width="140" height="48" fill="white"/>
</clipPath>
</defs>
</svg>
