<svg width="28" height="23" viewBox="0 0 28 23" fill="none" xmlns="http://www.w3.org/2000/svg">
<path d="M24.8131 0.199574C24.8131 0.199574 27.3222 -0.778864 27.1123 1.59716C27.0432 2.57559 26.4161 6.00045 25.9278 9.7043L24.2551 20.677C24.2551 20.677 24.1156 22.2845 22.8608 22.5641C21.6065 22.8431 19.7246 21.5857 19.3758 21.3061C19.0968 21.0962 14.1485 17.951 12.406 16.4139C11.9178 15.9941 11.3598 15.1558 12.4758 14.1773L19.7943 7.18814C20.6307 6.34855 21.467 4.39168 17.9821 6.76834L8.22359 13.4075C8.22359 13.4075 7.10823 14.1069 5.01767 13.4779L0.486502 12.0797C0.486502 12.0797 -1.18621 11.0315 1.67161 9.9833C8.64209 6.6986 17.2155 3.34414 24.8125 0.198928" fill="#1D7754"/>
</svg>
