<svg width="19" height="15" viewBox="0 0 19 15" fill="none" xmlns="http://www.w3.org/2000/svg">
<path d="M17.8 8.36401C18.3523 8.36401 18.8 7.9163 18.8 7.36401C18.8 6.81173 18.3523 6.36401 17.8 6.36401L17.8 8.36401ZM0.292881 6.65691C-0.0976429 7.04743 -0.0976429 7.68059 0.292881 8.07112L6.65684 14.4351C7.04737 14.8256 7.68053 14.8256 8.07106 14.4351C8.46158 14.0446 8.46158 13.4114 8.07106 13.0209L2.4142 7.36401L8.07106 1.70716C8.46158 1.31663 8.46158 0.683469 8.07106 0.292945C7.68053 -0.0975794 7.04737 -0.0975795 6.65684 0.292945L0.292881 6.65691ZM17.8 7.36401L17.8 6.36401L0.999989 6.36401L0.999989 7.36401L0.999988 8.36401L17.8 8.36401L17.8 7.36401Z" fill="#A7A7A7"/>
</svg>
